<?xml version="1.0" encoding="utf-8"?>
<!-- Generator: Adobe Illustrator 22.1.0, SVG Export Plug-In . SVG Version: 6.00 Build 0)  -->
<svg version="1.1" id="background" xmlns="http://www.w3.org/2000/svg" xmlns:xlink="http://www.w3.org/1999/xlink" x="0px" y="0px"
	 viewBox="0 0 935.2 488.5" style="enable-background:new 0 0 935.2 488.5;" xml:space="preserve">
<style type="text/css">
	.st0{fill:#3597D3;}
	.st1{fill:#F0C514;}
</style>
<path id="letter_t" class="st0" d="M935.1,460.6v-73.9h-56.2c-7.6,0-15.1-1.5-22-4.5c-6.7-2.9-12.8-7-17.9-12.1
	c-5.1-5.1-9.2-11.1-11.9-17.8c-2.9-6.9-4.4-14.4-4.3-21.9v-86.2h112.4v-73.9H822.6V54.1h-73.9v116.2h-36.1v73.9h36.1v86.4
	c-0.1,17.4,3.4,34.6,10.2,50.5c13.3,31.2,38.2,56.1,69.4,69.4c16,6.8,33.2,10.3,50.5,10.2L935.1,460.6L935.1,460.6z"/>
<path id="lightening" class="st1" d="M589.5,485.7c-1.1,3.8-1.8,3.7-1.5-0.3l17.2-220.1c0.3-4-2.6-6.5-6.5-5.6l-41.4,10
	c-3.9,0.9-5.9-1.4-4.5-5.1L652.2,2.7c1.4-3.8,2.1-3.6,1.6,0.4l-28.2,206.4c-0.5,4,2.2,6.5,6.1,5.5l33.1-8c3.9-0.9,6.2,1.4,5,5.3
	L589.5,485.7z"/>
<path id="letter_o" class="st0" d="M500.9,258.2c-6.7-16.9-16.7-32.4-29.4-45.4c-12.4-12.6-27.2-22.5-43.6-29.2
	c-17-6.9-35.3-10.4-53.7-10.3c-18.4-0.1-36.6,3.6-53.4,10.9c-16.4,7.1-31.3,17.3-43.7,30.1c-12.7,13.1-22.7,28.6-29.5,45.6
	c-7.2,17.6-10.8,36.7-10.8,57.4c-0.2,19.4,3.5,38.7,10.8,56.7c6.8,16.9,16.8,32.4,29.5,45.4c12.5,12.8,27.3,23,43.7,30.2
	c34.2,14.7,72.9,14.7,107.1,0c16.4-7.1,31.2-17.4,43.6-30.2c12.6-13.1,22.6-28.6,29.4-45.4c7.3-18,11-37.3,10.8-56.7
	C511.7,295.5,508.1,275.9,500.9,258.2z M437.2,347.4c-3.3,8.7-8.3,16.6-14.7,23.4c-12.6,13.1-30.1,20.4-48.3,20.3
	c-9.1,0.1-18.2-1.9-26.5-5.7c-8.2-3.7-15.5-9-21.6-15.6c-6.2-6.8-11.2-14.7-14.5-23.4c-3.6-9.3-5.4-19.2-5.3-29.2
	c-0.1-10.4,1.6-20.6,5.3-30.3c3.3-8.6,8.2-16.6,14.5-23.4c6.1-6.5,13.4-11.6,21.6-15c17-6.9,36-6.9,53,0c8.2,3.4,15.6,8.5,21.7,15
	c6.4,6.8,11.3,14.7,14.7,23.4C444.4,306.4,444.4,327.9,437.2,347.4L437.2,347.4z"/>
<path id="letter_j" class="st0" d="M37.7,460.2c13.3,0,26.5-1.7,39.2-5.3c12.4-3.4,24.2-8.5,35.3-14.9c10.9-6.4,21-14.2,30-23.1
	c9-8.9,16.9-19,23.4-29.9c6.6-11.1,11.6-23,15.1-35.4c3.6-12.8,5.4-26.1,5.6-39.4h0.5V172.9H111v139.3c0,9.6-1.8,19.1-5.4,28
	c-3.5,8.7-8.5,16.6-14.8,23.5C84.5,370.5,77,376,68.7,380c-8.7,4.1-18.1,6.2-27.7,6.1l-41-0.5v74.6H37.7z M195.1,84
	c-5-11.9-14.5-21.3-26.3-26.3c-6-2.6-12.6-4-19.1-3.9c-6.8-0.1-13.5,1.3-19.7,3.9c-5.9,2.5-11.3,6.1-15.9,10.6
	c-4.6,4.5-8.2,9.8-10.7,15.8c-5.2,12.3-5.2,26.2,0,38.4c2.5,5.8,6.2,11.2,10.7,15.6c4.6,4.5,10,8.1,15.9,10.6
	c6.2,2.7,12.9,4,19.7,3.9c6.6,0,13.1-1.3,19.1-3.9c11.8-5,21.3-14.4,26.3-26.2C200.3,110.1,200.3,96.3,195.1,84L195.1,84z"/>
</svg>
